<?xml version="1.0" encoding="iso-8859-1"?>
<!-- Generator: Adobe Illustrator 19.0.0, SVG Export Plug-In . SVG Version: 6.00 Build 0)  -->
<svg version="1.1" id="Layer_1" xmlns="http://www.w3.org/2000/svg" xmlns:xlink="http://www.w3.org/1999/xlink" x="0px" y="0px"
	 viewBox="0 0 512 512" style="enable-background:new 0 0 512 512;" xml:space="preserve">
<g>
	<g>
		<path d="M441.239,137.656L306.547,2.964C304.649,1.066,302.076,0,299.391,0H109.598c-23.049,0-41.8,18.751-41.8,41.8v428.4
			c0,23.049,18.751,41.8,41.8,41.8h292.804c23.049,0,41.8-18.751,41.8-41.8V144.811
			C444.202,142.128,443.136,139.553,441.239,137.656z M309.511,34.549l100.143,100.141h-78.582c-11.889,0-21.56-9.672-21.56-21.562
			V34.549z M423.964,470.2c0,11.889-9.672,21.562-21.562,21.562H109.598c-11.891,0-21.562-9.673-21.562-21.562V41.8
			c0-11.889,9.673-21.562,21.562-21.562h179.674v92.892c0,23.049,18.75,41.8,41.799,41.8h92.893V470.2z"/>
	</g>
</g>
<g>
	<g>
		<path d="M320.585,224.24H191.414c-17.533,0-31.797,14.264-31.797,31.797v129.171c0,17.534,14.264,31.798,31.797,31.798h129.171
			c17.533,0,31.797-14.264,31.797-31.798V256.036C352.384,238.503,338.119,224.24,320.585,224.24z M332.146,385.209
			c0,6.374-5.186,11.56-11.559,11.56H191.416c-6.374,0-11.559-5.186-11.559-11.56V256.038c0-6.374,5.186-11.559,11.559-11.559
			h129.171c6.374,0,11.559,5.185,11.559,11.559V385.209z"/>
	</g>
</g>
<g>
	<g>
		<path d="M309.884,271.291H202.118c-5.59,0-10.119,4.531-10.119,10.119v78.426c0,5.588,4.529,10.119,10.119,10.119h107.766
			c5.59,0,10.119-4.531,10.119-10.119v-78.424C320.003,275.821,315.472,271.291,309.884,271.291z M299.764,349.716h-87.528V291.53
			h87.528V349.716z"/>
	</g>
</g>
<g>
</g>
<g>
</g>
<g>
</g>
<g>
</g>
<g>
</g>
<g>
</g>
<g>
</g>
<g>
</g>
<g>
</g>
<g>
</g>
<g>
</g>
<g>
</g>
<g>
</g>
<g>
</g>
<g>
</g>
</svg>
